<svg width="53" height="46" viewBox="0 0 53 46" fill="none" xmlns="http://www.w3.org/2000/svg">
<path d="M15.6074 2.54899C17.538 2.54899 19.4174 2.31221 21.356 2.31221C23.8642 2.31221 26.3691 2.07542 28.8805 2.07542C31.7178 2.07542 40.2289 1.95703 37.3916 1.95703" stroke="black" stroke-width="3" stroke-linecap="round"/>
<path d="M37.8652 1.83984C38.3209 1.86665 38.9302 2.52559 39.1412 2.90537C39.2839 3.1622 39.4355 3.41131 39.5819 3.67492C39.8347 4.12984 39.8022 4.67834 40.0686 5.10879C40.6885 6.11015 41.1966 7.12715 41.8314 8.11463C42.6436 9.37812 43.4454 10.5753 44.3768 11.7585C45.7371 13.4864 47.1396 15.2845 48.1193 17.244C48.3675 17.7403 48.7362 18.1645 48.9941 18.6515C49.1706 18.9849 49.2374 19.3412 49.4151 19.671C49.6279 20.0663 49.9714 20.3769 50.1517 20.7826C50.2576 21.0209 50.1528 21.1252 50.4148 21.2562" stroke="black" stroke-width="3" stroke-linecap="round"/>
<path d="M50.8884 21.9648C50.8884 22.8189 50.3326 23.3881 49.7835 24.0104C49.386 24.4608 49.052 24.9623 48.639 25.3982C48.2097 25.8514 47.6043 26.4178 47.3433 26.9834C46.9127 27.9162 46.2811 28.783 45.745 29.6603C45.1468 30.6392 44.7558 31.715 44.1467 32.6793C43.564 33.6019 43.1336 34.6147 42.5747 35.5536C42.0062 36.5086 41.3492 37.4258 40.8514 38.4214C40.0949 39.9343 39.345 41.6971 38.3389 43.0387" stroke="black" stroke-width="3" stroke-linecap="round"/>
<path d="M15.1338 44.3405C16.2133 44.2364 17.268 44.2221 18.3501 44.2221C19.731 44.2221 21.0599 43.9617 22.4281 43.8735C23.6103 43.7972 24.7983 43.8182 25.9798 43.7419C26.9878 43.6769 27.979 43.5117 28.9923 43.5117C30.9255 43.5117 32.8187 43.6301 34.7474 43.6301C35.546 43.6301 36.3568 43.5902 37.1547 43.6301C37.3223 43.6385 38.3316 43.8669 37.7467 43.8669" stroke="black" stroke-width="3" stroke-linecap="round"/>
<path d="M2.58398 22.6758C2.64633 23.2369 3.33356 23.9637 3.64951 24.3925C4.5722 25.6447 5.11157 27.1158 6.04367 28.3586C6.7895 29.353 7.48622 30.7098 8.02345 31.838C8.66524 33.1858 9.52301 34.4329 10.2137 35.7515C10.7574 36.7896 11.3156 37.8824 11.937 38.8692C12.2753 39.4066 12.7031 40.1422 12.8841 40.7306C13.071 41.3379 13.5373 42.37 13.9496 42.8551C14.238 43.1944 14.66 44.4317 14.66 43.9864" stroke="black" stroke-width="3" stroke-linecap="round"/>
<path d="M2.46582 22.4376C2.52502 21.9048 2.821 21.4701 2.821 20.9051C2.821 20.0798 3.35331 19.1961 3.64974 18.4386C4.53886 16.1664 6.43352 14.4828 7.61588 12.3808C8.33542 11.1017 9.42165 10.0642 10.1613 8.79618C10.7506 7.78603 11.5876 6.79676 12.3516 5.9153C12.9435 5.23226 13.5109 4.46004 14.1472 3.8237C14.3841 3.58676 15.8441 2.513 15.8441 2.5477" stroke="black" stroke-width="3" stroke-linecap="round"/>
<path d="M25.7888 14.2695C24.1528 14.2695 22.2676 14.9364 21.1649 16.177C20.6371 16.7707 20.1399 17.4075 19.7245 18.0844C19.3699 18.6621 18.8603 19.1134 18.7116 19.8077C18.4868 20.8568 18.3301 21.9006 18.3301 22.9779C18.3301 23.6686 18.6382 24.1511 18.8563 24.7933C19.0517 25.3686 19.182 25.9796 19.6061 26.4376C20.3146 27.2028 20.91 27.8737 21.8161 28.4174C22.9497 29.0976 24.265 29.298 25.5257 29.6342C25.9981 29.7602 26.6489 29.7252 27.1437 29.7723C27.7185 29.8271 28.4925 29.8821 29.0446 29.7197C30.3022 29.3498 31.6607 29.1755 32.7739 28.3845C34.8302 26.9235 36.2073 24.9729 36.2073 22.3991C36.2073 21.3977 36.0598 20.5021 35.8456 19.538C35.6375 18.6019 34.8157 18.0939 34.1026 17.5845C32.7175 16.5952 31.4362 15.4058 29.7878 14.8352C28.6789 14.4513 27.692 14.2695 26.4991 14.2695" stroke="black" stroke-width="3" stroke-linecap="round"/>
<path d="M33.1299 29.3047C33.1897 29.9031 34.2159 30.7059 34.669 31.0148C35.4672 31.559 36.121 32.2958 36.8 32.9748" stroke="black" stroke-width="3" stroke-linecap="round"/>
<path d="M22.1194 21.2539C22.1194 21.9228 22.028 22.6372 22.2378 23.2666" stroke="black" stroke-width="3" stroke-linecap="round"/>
<path d="M26.2627 18.293C26.5154 19.6688 26.6635 20.9986 26.7955 22.3972C26.8595 23.0763 26.7593 23.8063 26.881 24.4757C26.9135 24.6545 27.0729 25.0599 26.973 25.1597" stroke="black" stroke-width="3" stroke-linecap="round"/>
<path d="M31.5242 20.9141C31.5152 21.4444 31.4611 21.9652 31.4611 22.4986C31.4611 22.6621 31.4094 23.2229 31.5873 23.3118" stroke="black" stroke-width="3" stroke-linecap="round"/>
</svg>
