<svg width="50" height="50" viewBox="0 0 50 50" fill="none" xmlns="http://www.w3.org/2000/svg">
<path d="M3.06311 36.6435C3.06311 35.7172 2.996 34.4804 2.6677 33.6187C2.19472 32.3771 2.35138 30.524 2.35138 29.2099C2.35138 25.7212 1.63965 22.2414 1.63965 18.7613C1.63965 17.5314 1.67563 16.3383 1.82747 15.1236C1.96596 14.0157 3.16949 13.0235 3.91323 12.3064C4.91611 11.3393 6.3066 10.8063 7.43233 9.99324C8.92071 8.91829 10.6739 8.01659 12.3156 7.19575C13.9699 6.36859 15.5071 4.94939 17.2977 4.4378C17.9333 4.25618 18.4823 3.75901 19.1165 3.52837C19.7224 3.30807 20.6259 2.98451 21.1331 2.56951C23.0639 0.989782 26.0098 1.97386 28.112 2.44101C31.1794 3.12265 34.2549 5.04324 36.9493 6.58287C38.2233 7.3109 39.6061 7.86459 40.8638 8.61921C41.9819 9.29004 42.9408 9.9413 44.027 10.6654C44.8078 11.1859 45.8139 11.7731 46.2611 12.6227C46.7143 13.4838 46.7902 14.4355 47.1507 15.2917C47.8196 16.8803 47.7241 19.1904 47.7241 20.8965C47.7241 22.845 48.0799 24.916 48.0799 26.8573C48.0799 28.7255 48.0799 30.5938 48.0799 32.4621C48.0799 35.0358 47.083 35.8612 45.322 37.6221C43.5281 39.416 41.235 40.9736 39.0449 42.2978C34.8906 44.8098 30.7749 46.8602 26.1943 48.387" stroke="black" stroke-width="3" stroke-linecap="round"/>
<path d="M3.06348 37C3.12773 37.514 4.07315 38.3087 4.3782 38.6607C5.35553 39.7884 6.64508 40.407 7.75891 41.3495C9.92442 43.1818 13.0781 43.8579 15.5978 45.0465C17.4835 45.936 19.5698 46.3676 21.4696 47.2311C22.7773 47.8255 24.1683 47.9494 25.4829 48.3877" stroke="black" stroke-width="3" stroke-linecap="round"/>
<path d="M33.8454 17.6038C30.2256 15.1423 26.1479 13.8672 21.746 13.8672C17.3708 13.8672 15.2096 17.0678 14.4903 21.024C14.0679 23.3476 14.4365 25.8957 15.6568 27.8843C17.0808 30.205 18.9231 31.5736 21.3506 32.7873C23.1717 33.6978 25.8067 34.0653 27.8155 33.7066C28.9862 33.4976 30.2852 33.1891 31.3148 32.5501C31.5501 32.404 33.046 31.5276 32.5999 31.3045" stroke="black" stroke-width="3" stroke-linecap="round"/>
</svg>
