<svg width="55" height="51" viewBox="0 0 55 51" fill="none" xmlns="http://www.w3.org/2000/svg">
<path d="M13.9063 18.1172C13.4464 18.1683 12.3947 19.5193 12.1182 19.9494C11.5782 20.7894 10.9533 22.3654 10.9261 23.3711C10.8729 25.3403 10.8707 27.068 11.478 28.8898C12.1903 31.0266 14.1811 31.8732 15.893 33.062C16.883 33.7495 18.1458 33.6129 19.116 34.2099C19.7563 34.6039 20.7719 34.1219 21.2573 34.6073" stroke="black" stroke-width="3" stroke-linecap="round"/>
<path d="M13.9062 17.3193C13.9062 16.578 13.5347 11.1104 14.0166 10.9727C14.9769 10.6983 16.1135 11.6929 16.7981 12.2531C17.4169 12.7594 18.1853 13.3102 18.8731 13.699C19.28 13.929 20.282 14.1768 20.4625 14.5378" stroke="black" stroke-width="3" stroke-linecap="round"/>
<path d="M19.8662 14.5408C22.3242 14.4916 24.7981 13.7461 27.2172 13.7461C28.7404 13.7461 30.2636 13.7461 31.7868 13.7461" stroke="black" stroke-width="3" stroke-linecap="round"/>
<path d="M31.9854 13.7463C34.4277 12.7932 36.7054 11.3398 39.237 10.7772C39.7511 10.663 40.071 13.1662 40.12 13.5587C40.2267 14.4121 40.3297 16.9905 40.3297 16.1304" stroke="black" stroke-width="3" stroke-linecap="round"/>
<path d="M40.5287 17.1211C41.5013 17.6932 41.7792 19.0265 42.2175 19.9909C42.7535 21.1701 43.2207 22.1351 43.553 23.3904C44.0315 25.198 43.6796 26.8238 42.8687 28.4456C41.1711 31.8409 37.0932 35.0019 33.1777 35.0019" stroke="black" stroke-width="3" stroke-linecap="round"/>
<path d="M9.1377 36.1962C10.244 36.1962 11.3239 36.1519 12.3275 36.7039C13.5443 37.3731 13.9244 38.5988 14.8551 39.5295C16.4374 41.1118 18.4718 41.7591 20.6609 41.7591" stroke="black" stroke-width="3" stroke-linecap="round"/>
<path d="M21.2568 35.2031C21.2568 37.613 21.2568 40.0228 21.2568 42.4327C21.2568 44.0089 21.8529 48.6999 21.8529 47.1237" stroke="black" stroke-width="3" stroke-linecap="round"/>
<path d="M32.582 35.2031C32.6245 35.5855 32.9 35.9308 32.9683 36.3069C33.05 36.7563 32.9284 37.2237 33.0235 37.6755C33.3052 39.0135 33.5754 40.4758 33.5754 41.8477C33.5754 43.4753 33.7741 48.3539 33.7741 46.7263" stroke="black" stroke-width="3" stroke-linecap="round"/>
<path d="M21.0588 48.7107C19.628 48.7902 18.5601 48.9149 17.0853 48.5562C15.468 48.1628 14.0155 47.0234 12.6151 46.1389C11.0788 45.1686 9.9406 43.3541 8.63054 42.044C7.98808 41.4015 7.25348 40.9127 6.8535 40.0683C6.53582 39.3976 6.29477 38.7149 5.76078 38.1809C4.67007 37.0902 4.3615 35.6446 3.57535 34.3619C2.78086 33.0656 2.36269 31.3619 2.19566 29.8586C1.92979 27.4657 1.84233 24.2166 2.48264 21.9115C3.15122 19.5046 3.44646 16.6726 4.56873 14.4281C5.22161 13.1223 6.09547 11.6053 7.04114 10.4877C8.01393 9.33803 9.26928 8.59534 10.3303 7.58482C12.6139 5.40998 16.0707 3.30076 19.1604 2.57378C20.8267 2.18169 22.5282 1.62455 24.2376 1.62455C25.877 1.62455 27.5214 1.59041 29.1604 1.62455C30.1029 1.64419 31.1746 1.90177 32.0963 2.12124C32.9532 2.32525 33.9678 2.24031 34.7674 2.61793C36.0003 3.20013 37.2851 3.8955 38.5643 4.30667C41.1314 5.1318 43.5885 6.74142 45.6946 8.37952C49.7372 11.5238 52.546 16.4261 53.2332 21.5804C53.4176 22.963 53.2443 24.4774 53.2443 25.874C53.2443 27.3833 52.6321 28.5756 52.295 29.991C51.597 32.923 49.8888 36.545 47.88 38.7769C45.8086 41.0785 43.4902 43.2747 40.7277 44.7372C39.2353 45.5272 37.6246 46.0588 36.0588 46.6356C35.7387 46.7536 33.9727 47.3724 33.9727 47.32" stroke="black" stroke-width="3" stroke-linecap="round"/>
</svg>
