<svg width="37" height="52" viewBox="0 0 37 52" fill="none" xmlns="http://www.w3.org/2000/svg">
<path d="M16.2649 26.7932C15.9374 26.2561 15.5966 25.8639 15.1557 25.423C14.5712 24.8385 14.2408 24.072 13.8435 23.3568C13.1856 22.1727 12.6023 21.0907 12.292 19.761C12.0459 18.7063 11.8192 17.4064 12.611 16.6146C13.3471 15.8785 14.2043 15.4522 15.1557 15.0486C17.5534 14.0314 19.5283 12.0189 20.9917 9.95934C21.9821 8.56543 22.1371 7.20151 22.1371 5.53701C22.1371 4.43827 22.1573 3.41967 21.7457 2.39062" stroke="black" stroke-width="3" stroke-linecap="round"/>
<path d="M21.4851 27.0523C21.8096 25.7138 21.4623 23.508 20.7021 22.3255C20.2587 21.6357 19.038 20.614 19.0057 19.7736C18.9154 17.4266 26.3758 13.3447 26.5744 13.7418" stroke="black" stroke-width="3" stroke-linecap="round"/>
<path d="M10.2624 28.2266C8.41792 28.2266 6.67927 28.5088 5.10782 29.5968C4.71086 29.8716 4.17541 30.652 4.60758 31.1627C5.47197 32.1842 7.37096 32.112 8.56594 32.2429C12.507 32.6748 16.5213 32.5329 20.4845 32.5329C21.504 32.5329 28.6402 32.706 28.2707 31.2279" stroke="black" stroke-width="3" stroke-linecap="round"/>
<path d="M8.43588 34.8844C8.24999 35.2452 7.76233 35.9073 8.17489 36.3198C8.73751 36.8825 10.3934 36.9879 11.198 37.1028C12.5489 37.2958 13.9304 37.4943 15.2941 37.4943C16.4693 37.4943 17.6214 37.2333 18.7957 37.2333C19.5958 37.2333 20.4202 37.2925 21.2171 37.2261C21.9945 37.1613 22.6592 36.8232 23.3848 36.6098C24.056 36.4124 24.1043 36.1813 24.233 35.6021C24.2841 35.3724 24.5711 34.8613 24.3563 34.7539" stroke="black" stroke-width="3" stroke-linecap="round"/>
<path d="M10.0014 39.3203C9.48173 40.4246 9.4085 41.3454 10.7844 41.6982C12.9336 42.2493 15.2331 42.2131 17.4396 42.1912C19.1092 42.1747 21.3545 41.8531 22.8189 40.9877C23.1625 40.7847 24.5773 39.6551 23.5729 39.3203" stroke="black" stroke-width="3" stroke-linecap="round"/>
<path d="M28.4014 28.6195C30.145 28.0383 31.9306 27.1743 33.7517 27.8365C34.3719 28.0621 34.9549 28.5134 35.3104 29.0762C35.5989 29.5331 35.4481 30.2588 35.4481 30.7799C35.4481 32.0312 34.3795 33.0085 33.5197 33.8683C32.533 34.8549 30.9495 35.8448 29.5758 36.1882" stroke="black" stroke-width="3" stroke-linecap="round"/>
<path d="M4.44786 42.5195C3.42615 43.0304 1.65966 44.052 1.59687 45.3705C1.516 47.0688 3.74114 47.6275 5.02108 47.9802C7.45492 48.6507 9.88763 49.362 12.3975 49.6847C14.6339 49.9723 16.8952 49.6491 19.1252 49.8808C21.0813 50.0841 22.9273 49.7309 24.8573 49.4735C26.8345 49.2099 28.7662 49.0196 30.6498 48.3271C31.4248 48.0422 33.5781 47.5088 33.6366 46.4566C33.6604 46.0279 33.9616 45.5021 33.6291 45.1141C33.2656 44.69 32.75 44.5158 32.4147 44.0129" stroke="black" stroke-width="3" stroke-linecap="round"/>
</svg>
