<svg width="55" height="50" viewBox="0 0 55 50" fill="none" xmlns="http://www.w3.org/2000/svg">
<path d="M13.5667 1.82012C12.1924 1.82012 10.3492 1.55358 9.06782 2.12307C8.32864 2.4516 7.2971 4.43067 6.81081 5.09203C5.28115 7.17236 5.38692 11.098 5.38692 13.605C5.38692 16.5134 5.38692 19.4218 5.38692 22.3301C5.38692 23.8149 5.23717 24.2163 3.61464 24.466C2.34341 24.6615 1.89121 24.9186 3.41772 24.3902C8.92244 22.4847 7.29554 33.5703 7.29554 36.6599C7.29554 37.6825 7.00797 39.2113 7.43187 40.1439C7.77824 40.9059 8.04598 42.6322 8.11351 43.4764C8.32797 46.157 13.0413 47.0084 14.93 46.5362" stroke="black" stroke-width="3" stroke-linecap="round"/>
<path d="M43.0146 2.63593C44.348 2.56575 45.9963 1.88583 47.2257 2.78741C48.1756 3.48396 48.9692 5.20568 49.0131 6.39257C49.1229 9.3562 48.4295 12.889 49.1495 15.769C49.4809 17.0947 49.2469 18.5743 49.2858 19.9346C49.3112 20.8236 49.2981 23.0416 50.1644 23.6307C50.8178 24.075 51.635 24.4487 52.4365 24.4487C53.7344 24.4487 51.8283 25.2735 51.3307 25.6605C49.8721 26.795 50.3764 30.3474 50.3764 32.0528C50.3764 34.0422 50.3764 36.0316 50.3764 38.021C50.3764 40.2771 50.6491 42.4748 50.6491 44.7618C50.6491 48.6113 46.9593 48.1914 44.1053 47.352" stroke="black" stroke-width="3" stroke-linecap="round"/>
<path d="M18.7471 7.54532C21.4642 7.18303 24.3089 7 27.048 7C28.3906 7 29.4842 7.54532 30.7441 7.54532" stroke="black" stroke-width="3" stroke-linecap="round"/>
<path d="M17.93 7.82031C17.93 9.8292 17.831 11.8358 18.1421 13.8188C18.2733 14.6554 17.9286 15.943 18.339 16.6817C18.6967 17.3255 18.748 18.2139 18.748 18.9387C18.748 19.5333 18.6354 20.2392 18.8843 20.7868C19.453 22.0379 18.7863 21.6486 20.1719 22.0592C22.1403 22.6424 24.7174 22.5439 26.7914 22.5439C27.5429 22.5439 29.6459 21.9599 29.9119 21.0291C30.2473 19.8551 30.1997 18.1846 30.1997 16.9544C30.1997 15.3616 30.4723 13.864 30.4723 12.3192C30.4723 11.5169 31.206 9.00511 30.4723 8.63829" stroke="black" stroke-width="3" stroke-linecap="round"/>
<path d="M33.7441 15.9995C35.8697 15.9995 37.834 15.4972 37.834 18.1201C37.834 20.5598 38.1067 23.0242 38.1067 25.391C38.1067 27.7118 38.3793 30.0997 38.3793 32.359C38.3793 33.2658 38.652 34.3267 38.652 35.0856C38.652 36.0592 35.9732 35.6309 35.3801 35.6309" stroke="black" stroke-width="3" stroke-linecap="round"/>
<path d="M18.7471 27.721C21.4463 27.2069 24.5162 26.9654 27.2601 26.9031C27.8583 26.8895 30.3334 26.6271 30.4714 26.9031" stroke="black" stroke-width="3" stroke-linecap="round"/>
<path d="M19.0201 27.7227C18.3407 29.2513 18.5782 32.3037 18.7626 33.9635C18.8402 34.662 19.1058 38.3992 19.5654 38.629" stroke="black" stroke-width="3" stroke-linecap="round"/>
<path d="M19.5654 39.9914C22.4787 39.9914 25.4021 39.7188 28.2905 39.7188" stroke="black" stroke-width="3" stroke-linecap="round"/>
<path d="M31.29 26.9062C31.29 29.2693 31.29 31.6323 31.29 33.9954C31.29 34.7587 31.2972 39.1795 31.8354 39.4486" stroke="black" stroke-width="3" stroke-linecap="round"/>
</svg>
